<?xml version="1.0" encoding="UTF-8" standalone="no"?>

<svg id="svg" version="1.1" width="400" height="400" viewBox="0 0 400 400" xmlns="http://www.w3.org/2000/svg"
	 xmlns:xlink="http://www.w3.org/1999/xlink">
	<g id="svgg">
		<path id="path0"
			  d="M58.800 59.000 C 58.392 59.491,58.420 59.600,58.951 59.600 C 59.308 59.600,59.600 59.330,59.600 59.000 C 59.600 58.670,59.532 58.400,59.449 58.400 C 59.366 58.400,59.074 58.670,58.800 59.000 M213.800 70.395 C 207.905 71.892,204.492 73.471,199.200 77.149 C 197.770 78.143,194.890 80.115,192.800 81.531 C 181.120 89.447,176.810 94.336,173.523 103.400 C 169.167 115.406,171.155 128.406,178.975 139.070 C 179.649 139.989,182.000 143.382,184.200 146.610 C 186.400 149.838,188.381 152.686,188.602 152.939 C 188.823 153.193,189.723 154.472,190.602 155.783 C 191.481 157.093,193.145 159.497,194.300 161.125 C 196.629 164.407,196.653 164.513,195.792 167.613 C 195.153 169.914,194.134 175.092,193.590 178.800 C 193.152 181.789,193.166 194.257,193.612 198.200 C 194.122 202.705,196.068 211.262,196.797 212.200 C 196.968 212.420,197.241 213.224,197.405 213.987 C 197.568 214.750,197.852 215.650,198.035 215.987 C 198.219 216.324,198.841 217.680,199.419 219.000 C 201.861 224.581,203.331 226.302,206.578 227.384 C 209.714 228.429,212.809 227.590,217.200 224.503 C 218.410 223.652,220.381 222.264,221.581 221.418 C 222.780 220.573,225.210 218.884,226.981 217.666 C 228.751 216.447,230.290 215.348,230.400 215.222 C 230.510 215.096,231.860 214.149,233.400 213.117 C 234.940 212.085,237.233 210.514,238.495 209.627 C 244.824 205.176,277.062 182.658,281.200 179.798 C 285.552 176.790,287.101 175.705,293.200 171.394 C 295.950 169.451,300.000 166.624,302.200 165.114 C 304.400 163.603,307.460 161.465,309.000 160.364 C 312.681 157.730,314.350 156.575,318.200 154.001 C 330.140 146.015,329.521 139.499,315.800 128.754 C 312.795 126.401,309.316 124.000,308.911 124.000 C 308.775 124.000,308.379 123.745,308.031 123.434 C 303.714 119.563,288.459 114.420,277.077 112.998 C 270.709 112.202,271.192 112.419,269.227 109.472 C 268.321 108.112,266.241 105.110,264.605 102.800 C 262.968 100.490,260.877 97.520,259.958 96.200 C 259.038 94.880,257.468 92.630,256.469 91.200 C 255.469 89.770,253.925 87.520,253.038 86.200 C 244.593 73.641,227.740 66.853,213.800 70.395 M162.780 141.814 C 160.321 143.479,157.385 145.518,156.255 146.345 C 155.125 147.171,152.490 149.018,150.400 150.448 C 148.310 151.879,145.655 153.713,144.500 154.525 C 139.172 158.268,138.022 159.070,135.400 160.871 C 133.860 161.928,132.260 163.020,131.844 163.297 C 131.429 163.574,130.619 164.178,130.044 164.641 C 129.470 165.103,128.280 165.946,127.400 166.514 C 126.520 167.082,124.630 168.376,123.200 169.391 C 121.770 170.406,119.430 172.047,118.000 173.039 C 116.570 174.030,113.510 176.174,111.200 177.803 C 108.890 179.432,104.930 182.167,102.400 183.881 C 99.870 185.595,97.710 187.088,97.600 187.199 C 97.490 187.309,96.860 187.775,96.200 188.232 C 94.582 189.354,91.259 191.677,88.700 193.475 C 83.203 197.337,81.911 198.229,81.280 198.600 C 80.906 198.820,80.510 199.109,80.400 199.242 C 80.290 199.375,79.030 200.283,77.600 201.260 C 65.591 209.460,64.867 210.327,65.279 216.016 C 65.702 221.873,72.404 225.826,77.606 223.286 C 78.925 222.643,83.560 219.688,84.000 219.211 C 84.187 219.008,88.759 215.863,91.137 214.302 C 92.757 213.238,92.879 213.335,94.912 217.300 C 95.956 219.335,98.597 224.420,100.783 228.600 C 102.969 232.780,105.725 238.090,106.908 240.400 C 109.068 244.618,112.420 251.047,116.920 259.600 C 118.251 262.130,119.894 265.318,120.570 266.683 C 122.049 269.669,122.193 269.694,124.647 267.376 C 127.420 264.757,131.649 262.853,135.399 262.536 C 138.982 262.233,139.056 262.044,137.055 258.310 C 135.302 255.040,131.073 246.929,127.195 239.400 C 123.501 232.230,119.954 225.397,115.982 217.800 C 114.371 214.720,112.142 210.400,111.028 208.200 C 109.914 206.000,108.867 204.140,108.701 204.067 C 107.653 203.603,108.557 202.003,110.700 200.531 C 111.965 199.662,113.990 198.251,115.200 197.396 C 117.554 195.733,121.713 192.858,122.717 192.200 C 123.052 191.980,125.053 190.594,127.163 189.120 C 129.274 187.646,131.810 185.879,132.800 185.194 C 133.790 184.509,136.693 182.475,139.251 180.674 C 141.809 178.873,146.101 175.870,148.788 174.000 C 151.475 172.130,155.727 169.160,158.235 167.400 C 160.744 165.640,164.610 162.940,166.828 161.400 C 169.045 159.860,172.282 157.610,174.022 156.400 C 177.233 154.168,177.633 153.563,176.653 152.431 C 175.931 151.598,173.688 148.382,170.140 143.093 L 167.251 138.785 162.780 141.814 M299.794 178.519 C 298.697 179.247,296.270 180.926,294.400 182.251 C 292.530 183.575,289.470 185.712,287.600 187.001 C 285.730 188.289,283.210 190.042,282.000 190.896 C 280.790 191.750,277.910 193.783,275.600 195.414 C 273.290 197.045,269.600 199.615,267.400 201.124 C 261.586 205.112,260.118 206.133,257.000 208.358 C 255.460 209.457,252.535 211.490,250.500 212.875 C 246.269 215.755,245.902 216.548,248.500 217.188 C 249.435 217.418,250.830 217.797,251.600 218.030 C 252.370 218.264,255.438 218.556,258.417 218.680 C 276.077 219.416,292.951 208.890,299.410 193.107 C 299.974 191.728,300.600 190.240,300.800 189.800 C 302.159 186.817,303.181 177.683,302.194 177.338 C 301.971 177.260,300.891 177.791,299.794 178.519 M133.800 270.717 C 128.736 272.523,126.065 277.615,127.687 282.372 C 128.214 283.918,130.941 287.577,136.949 294.800 C 139.054 297.330,140.781 299.710,140.788 300.089 C 140.799 300.733,139.063 300.785,114.100 300.889 L 87.400 301.000 85.700 301.893 C 79.080 305.373,78.754 314.061,85.100 317.862 L 87.000 319.000 166.600 319.121 C 210.380 319.187,247.326 319.128,248.703 318.989 C 257.966 318.053,260.252 306.231,252.000 301.937 L 250.200 301.000 210.321 300.800 L 170.443 300.600 156.321 286.493 C 139.846 270.034,138.453 269.058,133.800 270.717 "
			  stroke="none" fill="#ffffff" fill-rule="evenodd"></path>
		<path id="path1"
			  d="M76.000 44.200 C 75.592 44.691,75.620 44.800,76.151 44.800 C 76.508 44.800,76.800 44.530,76.800 44.200 C 76.800 43.870,76.732 43.600,76.649 43.600 C 76.566 43.600,76.274 43.870,76.000 44.200 M315.200 44.200 C 315.200 44.530,315.492 44.800,315.849 44.800 C 316.380 44.800,316.408 44.691,316.000 44.200 C 315.726 43.870,315.434 43.600,315.351 43.600 C 315.268 43.600,315.200 43.870,315.200 44.200 M12.000 136.200 C 11.592 136.691,11.620 136.800,12.151 136.800 C 12.508 136.800,12.800 136.530,12.800 136.200 C 12.800 135.870,12.732 135.600,12.649 135.600 C 12.566 135.600,12.274 135.870,12.000 136.200 M347.777 315.367 C 347.350 315.679,347.107 316.040,347.236 316.170 C 347.366 316.299,347.798 316.044,348.198 315.602 C 349.048 314.663,348.873 314.566,347.777 315.367 M76.200 348.000 C 76.598 348.440,76.969 348.800,77.025 348.800 C 77.080 348.800,77.031 348.440,76.916 348.000 C 76.801 347.560,76.430 347.200,76.091 347.200 C 75.574 347.200,75.591 347.327,76.200 348.000 "
			  stroke="none" fill="#005555" fill-rule="evenodd"></path>
		<path id="path2" d="" stroke="none" fill="#0000ff" fill-rule="evenodd"></path>
		<path id="path3"
			  d="M173.316 4.179 C 173.068 4.622,171.972 4.775,168.665 4.828 C 165.405 4.880,164.286 5.033,164.126 5.448 C 163.973 5.848,163.102 6.000,160.957 6.000 C 158.596 6.000,157.848 6.152,157.248 6.752 C 156.689 7.311,155.744 7.547,153.575 7.669 C 151.781 7.771,150.593 8.020,150.494 8.317 C 150.393 8.620,149.469 8.800,148.009 8.800 C 146.313 8.800,145.623 8.962,145.455 9.400 C 145.292 9.825,144.628 10.000,143.175 10.000 C 141.462 10.000,141.091 10.131,140.916 10.800 C 140.744 11.459,140.370 11.600,138.796 11.600 C 137.467 11.600,136.816 11.783,136.655 12.200 C 136.502 12.598,135.874 12.800,134.784 12.800 C 133.859 12.800,132.881 13.062,132.543 13.400 C 132.213 13.730,131.417 14.000,130.775 14.000 C 130.040 14.000,129.421 14.297,129.107 14.800 C 128.750 15.371,128.174 15.600,127.091 15.600 C 126.112 15.600,125.493 15.813,125.345 16.200 C 125.202 16.572,124.593 16.800,123.745 16.800 C 122.896 16.800,122.287 17.028,122.145 17.400 C 122.015 17.738,121.419 18.000,120.781 18.000 C 120.157 18.000,119.534 18.183,119.396 18.407 C 119.258 18.630,118.977 18.709,118.772 18.583 C 118.568 18.456,118.400 18.633,118.400 18.976 C 118.400 19.404,118.019 19.600,117.187 19.600 C 116.479 19.600,115.879 19.849,115.745 20.200 C 115.613 20.544,115.015 20.800,114.345 20.800 C 113.674 20.800,113.077 21.056,112.945 21.400 C 112.811 21.748,112.213 22.000,111.520 22.000 C 110.662 22.000,110.266 22.225,110.116 22.800 C 109.968 23.367,109.570 23.600,108.753 23.600 C 107.995 23.600,107.600 23.805,107.600 24.200 C 107.600 24.598,107.202 24.800,106.420 24.800 C 105.771 24.800,105.096 25.044,104.920 25.341 C 104.744 25.639,104.060 26.067,103.400 26.291 C 102.740 26.516,102.245 26.903,102.300 27.150 C 102.355 27.398,102.062 27.600,101.649 27.600 C 101.236 27.600,100.674 27.870,100.400 28.200 C 100.126 28.530,99.474 28.800,98.951 28.800 C 98.372 28.800,98.000 29.035,98.000 29.400 C 98.000 29.779,97.618 30.000,96.963 30.000 C 96.262 30.000,95.857 30.259,95.716 30.800 C 95.601 31.240,95.181 31.600,94.782 31.600 C 94.383 31.600,93.787 31.870,93.457 32.200 C 93.127 32.530,92.574 32.800,92.229 32.800 C 91.883 32.800,91.600 33.070,91.600 33.400 C 91.600 33.730,91.274 34.000,90.875 34.000 C 90.477 34.000,89.764 34.360,89.292 34.800 C 88.820 35.240,88.246 35.600,88.017 35.600 C 87.788 35.600,87.600 35.870,87.600 36.200 C 87.600 36.530,87.253 36.800,86.829 36.800 C 86.404 36.800,85.819 37.035,85.529 37.322 C 85.238 37.610,84.685 37.964,84.300 38.110 C 83.915 38.256,83.600 38.651,83.600 38.987 C 83.600 39.333,83.252 39.600,82.800 39.600 C 82.356 39.600,82.000 39.867,82.000 40.200 C 82.000 40.530,81.865 40.779,81.700 40.753 C 80.597 40.578,79.600 40.886,79.600 41.400 C 79.600 41.730,79.313 42.000,78.963 42.000 C 78.612 42.000,78.231 42.360,78.116 42.800 C 78.001 43.240,77.658 43.600,77.353 43.600 C 77.049 43.600,76.800 43.870,76.800 44.200 C 76.800 44.530,76.453 44.800,76.029 44.800 C 75.604 44.800,74.987 45.070,74.657 45.400 C 74.327 45.730,73.876 46.000,73.656 46.000 C 73.435 46.000,73.140 46.360,73.000 46.800 C 72.860 47.240,72.488 47.600,72.173 47.600 C 71.858 47.600,71.600 47.870,71.600 48.200 C 71.600 48.530,71.402 48.800,71.160 48.800 C 70.918 48.800,69.898 49.610,68.894 50.600 C 67.889 51.591,66.985 52.318,66.885 52.218 C 66.784 52.117,65.900 52.837,64.919 53.818 C 63.939 54.798,63.040 55.600,62.921 55.600 C 62.507 55.600,59.600 58.710,59.600 59.153 C 59.600 59.399,59.399 59.600,59.153 59.600 C 58.572 59.600,55.821 62.386,55.474 63.325 C 55.326 63.724,55.037 63.947,54.832 63.820 C 54.626 63.692,54.348 63.934,54.214 64.357 C 54.079 64.780,53.706 65.227,53.385 65.350 C 53.063 65.474,52.800 65.851,52.800 66.187 C 52.800 66.524,52.530 66.800,52.200 66.800 C 51.870 66.800,51.629 66.935,51.664 67.100 C 51.795 67.721,51.093 68.800,50.557 68.800 C 50.251 68.800,50.000 69.070,50.000 69.400 C 50.000 69.730,49.730 70.000,49.400 70.000 C 49.067 70.000,48.800 70.356,48.800 70.800 C 48.800 71.244,48.533 71.600,48.200 71.600 C 47.870 71.600,47.600 71.858,47.600 72.173 C 47.600 72.488,47.240 72.860,46.800 73.000 C 46.360 73.140,46.000 73.512,46.000 73.827 C 46.000 74.142,45.830 74.400,45.622 74.400 C 45.249 74.400,44.262 75.939,43.763 77.300 C 43.622 77.685,43.252 78.000,42.941 78.000 C 42.630 78.000,42.259 78.315,42.118 78.700 C 41.976 79.085,41.622 79.544,41.330 79.720 C 41.039 79.896,40.800 80.372,40.800 80.777 C 40.800 81.183,40.530 81.618,40.200 81.745 C 39.870 81.871,39.600 82.341,39.600 82.787 C 39.600 83.333,39.337 83.600,38.800 83.600 C 38.360 83.600,38.000 83.793,38.000 84.029 C 38.000 84.264,37.730 84.727,37.400 85.057 C 37.070 85.387,36.800 86.094,36.800 86.629 C 36.800 87.225,36.569 87.600,36.200 87.600 C 35.870 87.600,35.600 87.788,35.600 88.017 C 35.600 88.246,35.240 88.820,34.800 89.292 C 34.360 89.764,34.000 90.477,34.000 90.875 C 34.000 91.274,33.730 91.600,33.400 91.600 C 33.070 91.600,32.800 91.883,32.800 92.229 C 32.800 92.574,32.530 93.127,32.200 93.457 C 31.870 93.787,31.600 94.383,31.600 94.782 C 31.600 95.181,31.240 95.601,30.800 95.716 C 30.259 95.857,30.000 96.262,30.000 96.963 C 30.000 97.618,29.779 98.000,29.400 98.000 C 29.070 98.000,28.800 98.341,28.800 98.757 C 28.800 99.174,28.530 99.618,28.200 99.745 C 27.870 99.871,27.600 100.387,27.600 100.891 C 27.600 101.395,27.240 102.032,26.800 102.307 C 26.360 102.582,26.000 103.236,26.000 103.761 C 26.000 104.285,25.730 104.818,25.400 104.945 C 25.049 105.079,24.800 105.679,24.800 106.387 C 24.800 107.199,24.601 107.600,24.200 107.600 C 23.805 107.600,23.600 107.995,23.600 108.753 C 23.600 109.520,23.363 109.969,22.892 110.092 C 22.456 110.206,22.148 110.717,22.090 111.424 C 22.038 112.055,21.726 112.722,21.397 112.905 C 21.069 113.089,20.800 113.752,20.800 114.377 C 20.800 115.003,20.542 115.613,20.227 115.734 C 19.912 115.855,19.597 116.549,19.527 117.277 C 19.457 118.005,19.227 118.542,19.016 118.470 C 18.539 118.310,18.065 119.454,18.028 120.857 C 18.013 121.439,17.730 122.018,17.400 122.145 C 17.056 122.277,16.800 122.874,16.800 123.545 C 16.800 124.215,16.544 124.813,16.200 124.945 C 15.789 125.102,15.600 125.745,15.600 126.987 C 15.600 128.270,15.437 128.800,15.043 128.800 C 14.410 128.800,14.000 129.648,14.000 130.956 C 14.000 131.446,13.736 132.196,13.413 132.624 C 13.090 133.051,12.820 134.165,12.813 135.100 C 12.803 136.339,12.637 136.800,12.200 136.800 C 11.749 136.800,11.600 137.284,11.600 138.753 C 11.600 140.370,11.462 140.743,10.800 140.916 C 10.153 141.085,10.000 141.462,10.000 142.886 C 10.000 143.855,9.736 144.996,9.413 145.424 C 9.078 145.866,8.820 147.086,8.813 148.257 C 8.804 149.708,8.623 150.382,8.200 150.545 C 7.740 150.721,7.600 151.479,7.600 153.787 C 7.600 156.077,7.468 156.800,7.050 156.800 C 6.403 156.800,6.000 158.517,6.000 161.279 C 6.000 162.504,5.772 163.486,5.400 163.857 C 4.937 164.320,4.800 165.498,4.800 169.029 C 4.800 172.846,4.700 173.600,4.194 173.600 C 3.291 173.600,3.310 218.061,4.213 218.811 C 4.656 219.178,4.800 220.259,4.800 223.216 C 4.800 227.256,5.021 228.558,5.642 228.174 C 5.922 228.001,6.255 233.138,6.051 234.488 C 6.027 234.646,6.366 234.968,6.804 235.202 C 7.488 235.568,7.600 236.042,7.600 238.571 C 7.600 240.818,7.742 241.569,8.200 241.745 C 8.618 241.905,8.800 242.558,8.800 243.898 C 8.800 244.956,9.061 246.195,9.380 246.650 C 9.699 247.106,10.006 248.252,10.062 249.198 C 10.136 250.463,10.353 250.967,10.882 251.105 C 11.447 251.253,11.600 251.703,11.600 253.218 C 11.600 254.396,11.833 255.376,12.200 255.743 C 12.530 256.073,12.800 256.861,12.800 257.495 C 12.800 258.129,13.064 258.996,13.387 259.424 C 13.710 259.851,13.980 260.590,13.987 261.067 C 14.006 262.367,14.418 263.200,15.043 263.200 C 15.437 263.200,15.600 263.730,15.600 265.013 C 15.600 266.255,15.789 266.898,16.200 267.055 C 16.570 267.197,16.800 267.805,16.800 268.643 C 16.800 269.583,16.985 270.000,17.400 270.000 C 17.814 270.000,18.000 270.415,18.000 271.338 C 18.000 272.168,18.304 272.951,18.800 273.400 C 19.243 273.801,19.600 274.632,19.600 275.262 C 19.600 276.007,19.807 276.400,20.200 276.400 C 20.601 276.400,20.800 276.801,20.800 277.613 C 20.800 278.321,21.049 278.921,21.400 279.055 C 21.730 279.182,22.000 279.612,22.000 280.010 C 22.000 281.162,22.439 282.000,23.043 282.000 C 23.395 282.000,23.600 282.441,23.600 283.200 C 23.600 284.000,23.800 284.400,24.200 284.400 C 24.569 284.400,24.800 284.775,24.800 285.371 C 24.800 285.906,25.069 286.612,25.398 286.941 C 25.906 287.448,26.242 288.402,26.370 289.700 C 26.387 289.865,26.670 290.000,27.000 290.000 C 27.330 290.000,27.600 290.347,27.600 290.771 C 27.600 291.196,27.870 291.813,28.200 292.143 C 28.530 292.473,28.800 292.941,28.800 293.184 C 28.800 293.427,29.070 293.729,29.400 293.855 C 29.730 293.982,30.000 294.533,30.000 295.080 C 30.000 295.738,30.271 296.146,30.800 296.284 C 31.318 296.419,31.600 296.830,31.600 297.447 C 31.600 297.971,31.784 298.400,32.010 298.400 C 32.235 298.400,32.591 298.850,32.800 299.400 C 33.009 299.950,33.365 300.400,33.590 300.400 C 33.816 300.400,34.000 300.760,34.000 301.200 C 34.000 301.640,34.360 302.360,34.800 302.800 C 35.240 303.240,35.600 303.786,35.600 304.013 C 35.600 304.239,35.859 304.524,36.176 304.646 C 36.492 304.767,36.866 305.392,37.007 306.033 C 37.148 306.675,37.429 307.200,37.632 307.200 C 37.834 307.200,38.000 307.458,38.000 307.773 C 38.000 308.088,38.342 308.455,38.760 308.587 C 39.178 308.720,39.632 309.272,39.768 309.814 C 39.904 310.356,40.192 310.800,40.408 310.800 C 40.623 310.800,40.800 311.061,40.800 311.380 C 40.800 311.699,41.039 312.104,41.330 312.280 C 41.622 312.456,41.976 312.915,42.118 313.300 C 42.259 313.685,42.630 314.000,42.941 314.000 C 43.252 314.000,43.621 314.315,43.760 314.700 C 44.223 315.982,45.134 317.331,45.779 317.692 C 46.130 317.889,46.320 318.205,46.203 318.396 C 46.085 318.586,46.351 318.857,46.794 318.998 C 47.237 319.139,47.600 319.517,47.600 319.840 C 47.600 320.162,47.870 320.529,48.200 320.655 C 48.530 320.782,48.800 321.136,48.800 321.443 C 48.800 321.749,49.070 322.000,49.400 322.000 C 49.730 322.000,50.000 322.193,50.000 322.429 C 50.000 323.021,51.049 324.018,51.352 323.714 C 51.489 323.578,51.600 323.771,51.600 324.142 C 51.600 324.513,52.500 325.727,53.600 326.838 C 54.700 327.950,55.600 328.928,55.600 329.012 C 55.600 329.338,57.658 331.200,58.018 331.200 C 58.228 331.200,58.400 331.470,58.400 331.800 C 58.400 332.130,58.670 332.400,59.000 332.400 C 59.333 332.400,59.600 332.756,59.600 333.200 C 59.600 333.644,59.867 334.000,60.200 334.000 C 60.530 334.000,60.800 334.270,60.800 334.600 C 60.800 334.930,61.051 335.200,61.357 335.200 C 61.664 335.200,62.018 335.470,62.145 335.800 C 62.271 336.130,62.651 336.400,62.987 336.400 C 63.324 336.400,63.600 336.687,63.600 337.037 C 63.600 337.388,63.960 337.769,64.400 337.884 C 64.840 337.999,65.200 338.342,65.200 338.647 C 65.200 338.951,65.476 339.200,65.813 339.200 C 66.149 339.200,66.522 339.454,66.641 339.764 C 66.761 340.074,67.295 340.437,67.829 340.572 C 68.363 340.706,68.800 341.082,68.800 341.408 C 68.800 341.733,69.051 342.000,69.357 342.000 C 69.664 342.000,70.018 342.270,70.145 342.600 C 70.271 342.930,70.651 343.200,70.987 343.200 C 71.324 343.200,71.603 343.425,71.607 343.700 C 71.615 344.284,73.331 346.000,73.907 346.000 C 74.124 346.000,74.526 346.270,74.800 346.600 C 75.074 346.930,75.636 347.200,76.049 347.200 C 76.462 347.200,76.803 347.425,76.807 347.700 C 76.815 348.310,78.542 350.000,79.156 350.000 C 79.400 350.000,79.600 350.270,79.600 350.600 C 79.600 350.958,79.968 351.200,80.511 351.200 C 81.012 351.200,81.726 351.515,82.097 351.900 C 83.870 353.739,86.035 355.200,86.986 355.200 C 87.324 355.200,87.600 355.470,87.600 355.800 C 87.600 356.130,87.780 356.400,88.000 356.400 C 88.220 356.400,88.760 356.760,89.200 357.200 C 89.640 357.640,90.360 358.000,90.800 358.000 C 91.240 358.000,91.600 358.250,91.600 358.557 C 91.600 358.863,92.057 359.228,92.616 359.368 C 93.175 359.509,93.534 359.784,93.413 359.979 C 93.292 360.175,93.735 360.454,94.397 360.599 C 95.058 360.745,95.600 361.119,95.600 361.432 C 95.600 361.796,96.030 362.000,96.800 362.000 C 97.600 362.000,98.000 362.200,98.000 362.600 C 98.000 362.933,98.356 363.200,98.800 363.200 C 99.240 363.200,99.600 363.354,99.600 363.543 C 99.600 363.948,103.438 366.000,104.194 366.000 C 104.480 366.000,104.818 366.270,104.945 366.600 C 105.079 366.951,105.679 367.200,106.387 367.200 C 107.157 367.200,107.600 367.403,107.600 367.757 C 107.600 368.369,108.441 368.800,109.633 368.800 C 110.055 368.800,110.400 369.070,110.400 369.400 C 110.400 369.801,110.801 370.000,111.613 370.000 C 112.321 370.000,112.921 370.249,113.055 370.600 C 113.187 370.942,113.783 371.200,114.443 371.200 C 115.189 371.200,115.600 371.407,115.600 371.782 C 115.600 372.130,116.162 372.469,117.000 372.626 C 117.770 372.771,118.400 373.060,118.400 373.268 C 118.400 373.477,118.580 373.536,118.800 373.400 C 119.020 373.264,119.200 373.343,119.200 373.576 C 119.200 373.809,119.811 374.000,120.557 374.000 C 121.395 374.000,122.003 374.230,122.145 374.600 C 122.277 374.944,122.874 375.200,123.545 375.200 C 124.190 375.200,124.813 375.456,124.934 375.772 C 125.055 376.087,125.962 376.465,126.950 376.613 C 127.938 376.762,128.843 377.134,128.961 377.441 C 129.095 377.793,129.778 378.000,130.800 378.000 C 131.876 378.000,132.503 378.203,132.655 378.600 C 132.805 378.991,133.428 379.200,134.443 379.200 C 135.299 379.200,136.000 379.362,136.000 379.561 C 136.000 380.036,138.229 380.800,139.617 380.800 C 140.223 380.800,140.817 381.068,140.945 381.400 C 141.106 381.821,141.763 382.000,143.145 382.000 C 144.527 382.000,145.183 382.179,145.345 382.600 C 145.512 383.036,146.196 383.200,147.843 383.200 C 149.380 383.200,150.255 383.391,150.556 383.792 C 150.832 384.160,152.054 384.485,153.786 384.650 C 155.318 384.795,156.816 385.159,157.115 385.457 C 157.479 385.822,158.685 386.000,160.786 386.000 C 163.076 386.000,163.971 386.148,164.126 386.552 C 164.286 386.967,165.404 387.120,168.658 387.172 C 171.034 387.210,173.086 387.415,173.217 387.628 C 174.298 389.377,218.800 389.332,218.800 387.581 C 218.800 387.364,220.596 387.200,222.976 387.200 C 225.374 387.200,227.260 387.027,227.404 386.793 C 227.542 386.570,227.823 386.491,228.028 386.617 C 228.232 386.744,228.400 386.657,228.400 386.424 C 228.400 386.160,229.631 386.000,231.656 386.000 C 234.041 386.000,235.031 385.844,235.356 385.416 C 235.628 385.058,236.620 384.798,237.921 384.744 C 239.088 384.695,240.135 384.505,240.249 384.321 C 240.362 384.137,240.604 384.079,240.786 384.191 C 240.967 384.304,241.219 384.126,241.346 383.798 C 241.513 383.361,242.211 383.200,243.938 383.200 C 245.551 383.200,246.460 383.009,246.800 382.600 C 247.118 382.217,248.003 382.000,249.249 382.000 C 250.717 382.000,251.200 381.851,251.200 381.400 C 251.200 381.007,251.593 380.800,252.340 380.800 C 253.764 380.800,256.000 380.043,256.000 379.561 C 256.000 379.362,256.643 379.200,257.429 379.200 C 258.214 379.200,259.127 378.930,259.457 378.600 C 259.787 378.270,260.680 378.000,261.441 378.000 C 262.257 378.000,262.913 377.771,263.039 377.441 C 263.157 377.134,264.062 376.762,265.050 376.613 C 266.038 376.465,266.945 376.087,267.066 375.772 C 267.187 375.456,267.810 375.200,268.455 375.200 C 269.126 375.200,269.723 374.944,269.855 374.600 C 269.982 374.270,270.561 373.999,271.143 373.997 C 271.724 373.996,272.740 373.637,273.400 373.200 C 274.060 372.763,275.005 372.404,275.500 372.403 C 276.032 372.401,276.400 372.155,276.400 371.800 C 276.400 371.399,276.801 371.200,277.613 371.200 C 278.321 371.200,278.921 370.951,279.055 370.600 C 279.182 370.270,279.657 370.000,280.111 370.000 C 280.565 370.000,281.242 369.724,281.614 369.388 C 281.986 369.051,282.711 368.694,283.225 368.595 C 283.739 368.496,284.313 368.142,284.500 367.808 C 284.687 367.473,285.286 367.200,285.832 367.200 C 286.378 367.200,286.929 366.930,287.055 366.600 C 287.187 366.256,287.785 366.000,288.455 366.000 C 289.126 366.000,289.723 365.744,289.855 365.400 C 289.982 365.070,290.297 364.800,290.554 364.800 C 290.812 364.800,291.283 364.440,291.600 364.000 C 291.917 363.560,292.587 363.200,293.088 363.200 C 293.632 363.200,294.000 362.958,294.000 362.600 C 294.000 362.225,294.379 362.000,295.013 362.000 C 295.569 362.000,296.124 361.741,296.246 361.424 C 296.367 361.108,297.004 360.731,297.660 360.587 C 298.317 360.443,298.951 360.072,299.070 359.762 C 299.188 359.453,299.536 359.200,299.843 359.200 C 300.149 359.200,300.400 359.022,300.400 358.805 C 300.400 358.588,300.985 358.162,301.700 357.858 C 302.415 357.555,303.479 356.856,304.064 356.305 C 304.649 355.755,305.602 355.186,306.180 355.041 C 306.759 354.895,307.125 354.602,306.993 354.388 C 306.861 354.175,307.039 354.000,307.390 354.000 C 307.740 354.000,308.657 353.370,309.427 352.600 C 310.197 351.830,311.096 351.200,311.426 351.200 C 311.755 351.200,312.129 350.930,312.255 350.600 C 312.382 350.270,312.826 350.000,313.243 350.000 C 313.659 350.000,314.000 349.730,314.000 349.400 C 314.000 349.070,314.249 348.800,314.553 348.800 C 314.858 348.800,315.201 348.440,315.316 348.000 C 315.457 347.459,315.862 347.200,316.563 347.200 C 317.218 347.200,317.600 346.979,317.600 346.600 C 317.600 346.059,318.075 345.822,318.900 345.953 C 319.065 345.979,319.200 345.828,319.200 345.618 C 319.200 345.122,321.122 343.200,321.618 343.200 C 321.828 343.200,322.000 342.930,322.000 342.600 C 322.000 342.270,322.225 341.999,322.500 341.998 C 322.775 341.997,323.685 341.367,324.522 340.598 C 325.360 339.829,326.135 339.200,326.245 339.200 C 326.355 339.200,327.308 338.300,328.363 337.200 C 329.417 336.100,330.466 335.200,330.693 335.200 C 330.921 335.200,331.206 334.822,331.326 334.360 C 331.447 333.897,331.738 333.638,331.973 333.783 C 332.208 333.928,332.400 333.761,332.400 333.411 C 332.400 333.061,332.805 332.611,333.300 332.412 C 333.795 332.213,334.043 332.039,333.851 332.025 C 333.659 332.011,333.724 331.732,333.996 331.404 C 334.268 331.077,334.650 330.907,334.845 331.028 C 335.040 331.149,335.200 330.961,335.200 330.611 C 335.200 330.261,335.470 329.871,335.800 329.745 C 336.130 329.618,336.400 329.264,336.400 328.957 C 336.400 328.651,336.645 328.400,336.944 328.400 C 337.243 328.400,337.828 327.935,338.244 327.368 C 338.660 326.800,339.310 325.968,339.688 325.520 C 340.067 325.072,340.484 324.366,340.615 323.952 C 340.746 323.539,341.112 323.200,341.427 323.200 C 341.742 323.200,342.000 322.930,342.000 322.600 C 342.000 322.270,342.270 322.000,342.600 322.000 C 342.930 322.000,343.200 321.835,343.200 321.634 C 343.200 321.433,343.785 320.643,344.500 319.879 C 346.210 318.050,347.200 316.725,347.200 316.265 C 347.200 315.792,349.115 314.000,349.621 314.000 C 349.829 314.000,350.000 313.640,350.000 313.200 C 350.000 312.756,350.267 312.400,350.600 312.400 C 350.933 312.400,351.200 312.044,351.200 311.600 C 351.200 311.160,351.391 310.800,351.624 310.800 C 351.857 310.800,351.948 310.639,351.826 310.442 C 351.704 310.245,351.874 309.981,352.202 309.854 C 352.531 309.728,352.800 309.349,352.800 309.013 C 352.800 308.676,353.070 308.400,353.400 308.400 C 353.730 308.400,354.000 308.130,354.000 307.800 C 354.000 307.470,354.177 307.200,354.392 307.200 C 354.608 307.200,354.906 306.717,355.054 306.126 C 355.203 305.535,355.829 304.558,356.447 303.954 C 357.065 303.350,357.691 302.378,357.837 301.795 C 357.983 301.212,358.350 300.641,358.651 300.525 C 358.953 300.409,359.200 299.974,359.200 299.557 C 359.200 299.141,359.470 298.800,359.800 298.800 C 360.130 298.800,360.400 298.554,360.400 298.254 C 360.400 297.954,360.760 297.250,361.200 296.691 C 361.640 296.131,362.000 295.382,362.000 295.024 C 362.000 294.667,362.270 294.271,362.600 294.145 C 362.930 294.018,363.200 293.664,363.200 293.357 C 363.200 293.051,363.560 292.440,364.000 292.000 C 364.440 291.560,364.800 290.840,364.800 290.400 C 364.800 289.960,365.025 289.645,365.300 289.700 C 365.590 289.758,365.857 289.295,365.935 288.600 C 366.009 287.940,366.324 287.256,366.635 287.080 C 366.946 286.904,367.200 286.229,367.200 285.580 C 367.200 284.827,367.406 284.400,367.768 284.400 C 368.081 284.400,368.452 283.875,368.593 283.233 C 368.734 282.592,369.108 281.967,369.424 281.846 C 369.744 281.723,370.000 281.104,370.000 280.455 C 370.000 279.785,370.256 279.187,370.600 279.055 C 370.951 278.921,371.200 278.321,371.200 277.613 C 371.200 276.850,371.404 276.400,371.750 276.400 C 372.053 276.400,372.410 275.850,372.545 275.177 C 372.679 274.504,373.062 273.681,373.395 273.348 C 373.728 273.015,374.000 272.210,374.000 271.559 C 374.000 270.875,374.254 270.278,374.600 270.145 C 374.942 270.013,375.200 269.417,375.200 268.757 C 375.200 268.121,375.560 267.240,376.000 266.800 C 376.495 266.305,376.800 265.467,376.800 264.600 C 376.800 263.622,376.981 263.200,377.400 263.200 C 377.832 263.200,378.000 262.759,378.000 261.629 C 378.000 260.764,378.270 259.787,378.600 259.457 C 378.930 259.127,379.200 258.214,379.200 257.429 C 379.200 256.643,379.362 256.000,379.561 256.000 C 380.036 256.000,380.800 253.771,380.800 252.383 C 380.800 251.777,381.068 251.183,381.400 251.055 C 381.808 250.899,382.000 250.260,382.000 249.062 C 382.000 247.982,382.233 247.105,382.600 246.800 C 382.996 246.471,383.200 245.577,383.200 244.171 C 383.200 242.620,383.377 241.941,383.849 241.676 C 384.319 241.414,384.555 240.523,384.703 238.461 C 384.824 236.762,385.128 235.426,385.453 235.156 C 385.830 234.844,386.000 233.735,386.000 231.600 C 386.000 229.331,386.161 228.364,386.600 228.000 C 387.059 227.619,387.200 226.573,387.200 223.537 C 387.200 220.434,387.352 219.339,387.900 218.504 C 388.944 216.911,388.979 175.144,387.939 173.555 C 387.454 172.815,387.240 171.386,387.139 168.206 C 387.042 165.192,386.847 163.815,386.500 163.700 C 386.160 163.587,386.000 162.590,386.000 160.595 C 386.000 158.660,385.815 157.473,385.459 157.117 C 385.159 156.816,384.808 155.249,384.670 153.588 C 384.534 151.945,384.417 150.555,384.411 150.500 C 384.405 150.445,384.175 150.445,383.900 150.500 C 383.559 150.568,383.336 149.810,383.200 148.120 C 383.090 146.756,382.775 145.415,382.500 145.140 C 382.225 144.865,382.000 143.860,382.000 142.907 C 382.000 141.736,381.806 141.100,381.400 140.945 C 381.068 140.817,380.800 140.223,380.800 139.617 C 380.800 138.229,380.036 136.000,379.561 136.000 C 379.362 136.000,379.200 135.339,379.200 134.531 C 379.200 133.724,378.938 132.774,378.619 132.420 C 378.299 132.067,377.992 131.108,377.937 130.289 C 377.882 129.470,377.626 128.800,377.369 128.800 C 377.112 128.800,376.789 128.093,376.651 127.228 C 376.513 126.364,376.130 125.387,375.800 125.057 C 375.470 124.727,375.200 123.989,375.200 123.416 C 375.200 122.843,374.930 122.271,374.600 122.145 C 374.252 122.011,374.000 121.413,374.000 120.720 C 374.000 120.064,373.640 119.069,373.200 118.509 C 372.760 117.950,372.400 117.066,372.400 116.546 C 372.400 115.972,372.164 115.600,371.800 115.600 C 371.399 115.600,371.200 115.199,371.200 114.387 C 371.200 113.679,370.951 113.079,370.600 112.945 C 370.265 112.816,370.000 112.222,370.000 111.600 C 370.000 110.987,369.756 110.392,369.457 110.277 C 369.158 110.163,368.803 109.513,368.667 108.834 C 368.521 108.103,368.172 107.600,367.810 107.600 C 367.380 107.600,367.200 107.188,367.200 106.200 C 367.200 105.222,367.019 104.800,366.600 104.800 C 366.235 104.800,366.000 104.428,366.000 103.849 C 366.000 103.326,365.730 102.674,365.400 102.400 C 365.070 102.126,364.800 101.652,364.800 101.347 C 364.800 101.042,364.440 100.484,364.000 100.107 C 363.560 99.730,363.200 99.102,363.200 98.711 C 363.200 98.320,362.930 98.000,362.600 98.000 C 362.200 98.000,362.000 97.600,362.000 96.800 C 362.000 96.030,361.796 95.600,361.432 95.600 C 361.119 95.600,360.746 95.064,360.602 94.410 C 360.458 93.755,360.133 93.260,359.880 93.310 C 359.626 93.359,359.357 92.995,359.282 92.500 C 359.206 92.005,358.907 91.600,358.617 91.600 C 358.326 91.600,357.971 90.970,357.826 90.200 C 357.669 89.362,357.330 88.800,356.982 88.800 C 356.662 88.800,356.400 88.530,356.400 88.200 C 356.400 87.870,356.130 87.600,355.800 87.600 C 355.431 87.600,355.200 87.225,355.200 86.629 C 355.200 86.094,354.930 85.387,354.600 85.057 C 354.270 84.727,354.000 84.264,354.000 84.029 C 354.000 83.793,353.752 83.600,353.449 83.600 C 353.145 83.600,352.673 83.060,352.400 82.400 C 352.127 81.740,351.745 81.200,351.551 81.200 C 351.358 81.200,351.200 80.924,351.200 80.587 C 351.200 80.251,350.930 79.871,350.600 79.745 C 350.270 79.618,350.000 79.273,350.000 78.977 C 350.000 78.682,349.772 78.296,349.493 78.120 C 348.556 77.528,346.792 75.136,347.021 74.766 C 347.145 74.565,346.967 74.400,346.624 74.400 C 346.281 74.400,345.997 74.175,345.993 73.900 C 345.985 73.290,344.258 71.600,343.644 71.600 C 343.400 71.600,343.200 71.324,343.200 70.987 C 343.200 70.651,342.930 70.271,342.600 70.145 C 342.270 70.018,342.000 69.664,342.000 69.357 C 342.000 69.051,341.730 68.800,341.400 68.800 C 341.070 68.800,340.800 68.558,340.800 68.262 C 340.800 67.966,340.440 67.398,340.000 67.000 C 339.560 66.602,339.200 66.115,339.200 65.919 C 339.200 65.477,337.210 63.600,336.742 63.600 C 336.554 63.600,336.400 63.330,336.400 63.000 C 336.400 62.670,336.130 62.400,335.800 62.400 C 335.461 62.400,335.200 62.042,335.200 61.576 C 335.200 61.123,335.029 60.858,334.820 60.988 C 334.611 61.117,334.245 60.857,334.006 60.411 C 333.767 59.965,333.308 59.600,332.986 59.600 C 332.664 59.600,332.400 59.330,332.400 59.000 C 332.400 58.670,332.130 58.400,331.800 58.400 C 331.467 58.400,331.200 58.044,331.200 57.600 C 331.200 57.067,330.933 56.800,330.400 56.800 C 329.956 56.800,329.600 56.533,329.600 56.200 C 329.600 55.870,329.330 55.600,329.000 55.600 C 328.670 55.600,328.400 55.342,328.400 55.027 C 328.400 54.712,328.037 54.339,327.594 54.198 C 327.151 54.057,326.892 53.775,327.018 53.570 C 327.145 53.366,326.787 53.023,326.224 52.809 C 325.661 52.595,325.200 52.235,325.200 52.010 C 325.200 51.784,324.810 51.600,324.333 51.600 C 323.857 51.600,323.578 51.489,323.714 51.352 C 324.018 51.049,323.021 50.000,322.429 50.000 C 322.193 50.000,322.000 49.730,322.000 49.400 C 322.000 49.070,321.749 48.800,321.443 48.800 C 321.136 48.800,320.782 48.530,320.655 48.200 C 320.529 47.870,320.170 47.600,319.859 47.600 C 319.548 47.600,319.194 47.222,319.074 46.760 C 318.953 46.298,318.675 46.030,318.456 46.166 C 318.237 46.301,317.943 46.049,317.802 45.606 C 317.622 45.039,317.198 44.800,316.373 44.800 C 315.597 44.800,315.200 44.597,315.200 44.200 C 315.200 43.870,314.930 43.600,314.600 43.600 C 314.270 43.600,314.000 43.324,314.000 42.987 C 314.000 42.651,313.685 42.259,313.300 42.118 C 312.915 41.976,312.456 41.622,312.280 41.330 C 312.104 41.039,311.604 40.800,311.168 40.800 C 310.732 40.800,310.271 40.530,310.145 40.200 C 310.018 39.870,309.574 39.600,309.157 39.600 C 308.741 39.600,308.421 39.465,308.447 39.300 C 308.574 38.501,308.359 37.978,307.997 38.202 C 307.776 38.339,307.487 38.170,307.355 37.828 C 307.224 37.485,306.955 37.304,306.758 37.426 C 306.561 37.548,306.400 37.457,306.400 37.224 C 306.400 36.991,306.059 36.800,305.643 36.800 C 305.226 36.800,304.782 36.530,304.655 36.200 C 304.529 35.870,304.149 35.600,303.813 35.600 C 303.476 35.600,303.200 35.338,303.200 35.018 C 303.200 34.670,302.638 34.331,301.800 34.174 C 300.998 34.023,300.400 33.674,300.400 33.355 C 300.400 33.050,300.130 32.800,299.800 32.800 C 299.470 32.800,299.200 32.609,299.200 32.376 C 299.200 32.143,299.020 32.064,298.800 32.200 C 298.580 32.336,298.400 32.257,298.400 32.024 C 298.400 31.791,297.971 31.600,297.447 31.600 C 296.830 31.600,296.419 31.318,296.284 30.800 C 296.143 30.259,295.738 30.000,295.037 30.000 C 294.382 30.000,294.000 29.779,294.000 29.400 C 294.000 29.070,293.659 28.800,293.243 28.800 C 292.826 28.800,292.382 28.530,292.255 28.200 C 292.129 27.870,291.613 27.600,291.109 27.600 C 290.605 27.600,289.968 27.240,289.693 26.800 C 289.418 26.360,288.764 26.000,288.239 26.000 C 287.715 26.000,287.182 25.730,287.055 25.400 C 286.929 25.070,286.364 24.800,285.800 24.800 C 285.236 24.800,284.671 24.530,284.545 24.200 C 284.416 23.866,283.822 23.600,283.204 23.600 C 282.430 23.600,282.030 23.358,281.884 22.800 C 281.734 22.225,281.338 22.000,280.480 22.000 C 279.787 22.000,279.189 21.748,279.055 21.400 C 278.921 21.049,278.321 20.800,277.613 20.800 C 276.801 20.800,276.400 20.601,276.400 20.200 C 276.400 19.807,276.007 19.600,275.262 19.600 C 274.632 19.600,273.801 19.243,273.400 18.800 C 272.960 18.314,272.168 18.000,271.381 18.000 C 270.598 18.000,269.994 17.762,269.855 17.400 C 269.729 17.070,269.157 16.800,268.584 16.800 C 268.011 16.800,267.273 16.530,266.943 16.200 C 266.613 15.870,265.657 15.600,264.818 15.600 C 263.630 15.600,263.247 15.424,263.084 14.800 C 262.926 14.194,262.538 14.000,261.486 14.000 C 260.723 14.000,259.874 13.730,259.600 13.400 C 259.326 13.070,258.481 12.800,257.722 12.800 C 256.964 12.800,256.073 12.530,255.743 12.200 C 255.376 11.833,254.396 11.600,253.218 11.600 C 251.630 11.600,251.257 11.460,251.084 10.800 C 250.910 10.135,250.538 10.000,248.880 10.000 C 247.476 10.000,246.817 9.822,246.655 9.400 C 246.483 8.951,245.766 8.800,243.813 8.800 C 241.757 8.800,241.200 8.672,241.200 8.200 C 241.200 7.724,240.624 7.600,238.420 7.600 C 236.258 7.600,235.558 7.454,235.272 6.943 C 234.997 6.451,234.115 6.237,231.752 6.089 C 230.019 5.980,228.245 5.646,227.811 5.346 C 227.277 4.976,225.767 4.800,223.140 4.800 C 220.222 4.800,219.108 4.651,218.657 4.200 C 217.769 3.312,173.812 3.292,173.316 4.179 M229.075 70.218 C 239.155 72.505,247.630 78.157,253.038 86.200 C 253.925 87.520,255.469 89.770,256.469 91.200 C 257.468 92.630,259.038 94.880,259.958 96.200 C 260.877 97.520,262.968 100.490,264.605 102.800 C 266.241 105.110,268.321 108.112,269.227 109.472 C 271.192 112.419,270.709 112.202,277.077 112.998 C 288.459 114.420,303.714 119.563,308.031 123.434 C 308.379 123.745,308.775 124.000,308.911 124.000 C 309.316 124.000,312.795 126.401,315.800 128.754 C 329.521 139.499,330.140 146.015,318.200 154.001 C 314.350 156.575,312.681 157.730,309.000 160.364 C 307.460 161.465,304.400 163.603,302.200 165.114 C 300.000 166.624,295.950 169.451,293.200 171.394 C 287.101 175.705,285.552 176.790,281.200 179.798 C 277.062 182.658,244.824 205.176,238.495 209.627 C 237.233 210.514,234.940 212.085,233.400 213.117 C 231.860 214.149,230.510 215.096,230.400 215.222 C 230.290 215.348,228.751 216.447,226.981 217.666 C 225.210 218.884,222.780 220.573,221.581 221.418 C 220.381 222.264,218.410 223.652,217.200 224.503 C 212.809 227.590,209.714 228.429,206.578 227.384 C 203.331 226.302,201.861 224.581,199.419 219.000 C 198.841 217.680,198.219 216.324,198.035 215.987 C 197.852 215.650,197.568 214.750,197.405 213.987 C 197.241 213.224,196.968 212.420,196.797 212.200 C 196.068 211.262,194.122 202.705,193.612 198.200 C 193.166 194.257,193.152 181.789,193.590 178.800 C 194.134 175.092,195.153 169.914,195.792 167.613 C 196.653 164.513,196.629 164.407,194.300 161.125 C 193.145 159.497,191.481 157.093,190.602 155.783 C 189.723 154.472,188.823 153.193,188.602 152.939 C 188.381 152.686,186.400 149.838,184.200 146.610 C 182.000 143.382,179.649 139.989,178.975 139.070 C 171.155 128.406,169.167 115.406,173.523 103.400 C 176.810 94.336,181.120 89.447,192.800 81.531 C 194.890 80.115,197.770 78.143,199.200 77.149 C 208.692 70.553,219.499 68.046,229.075 70.218 M174.568 149.600 C 175.414 150.810,176.352 152.084,176.653 152.431 C 177.633 153.563,177.233 154.168,174.022 156.400 C 172.282 157.610,169.045 159.860,166.828 161.400 C 164.610 162.940,160.744 165.640,158.235 167.400 C 155.727 169.160,151.475 172.130,148.788 174.000 C 146.101 175.870,141.809 178.873,139.251 180.674 C 136.693 182.475,133.790 184.509,132.800 185.194 C 131.810 185.879,129.274 187.646,127.163 189.120 C 125.053 190.594,123.052 191.980,122.717 192.200 C 121.713 192.858,117.554 195.733,115.200 197.396 C 113.990 198.251,111.965 199.662,110.700 200.531 C 108.557 202.003,107.653 203.603,108.701 204.067 C 108.867 204.140,109.914 206.000,111.028 208.200 C 112.142 210.400,114.371 214.720,115.982 217.800 C 119.954 225.397,123.501 232.230,127.195 239.400 C 131.073 246.929,135.302 255.040,137.055 258.310 C 139.056 262.044,138.982 262.233,135.399 262.536 C 131.649 262.853,127.420 264.757,124.647 267.376 C 122.193 269.694,122.049 269.669,120.570 266.683 C 119.894 265.318,118.251 262.130,116.920 259.600 C 112.420 251.047,109.068 244.618,106.908 240.400 C 105.725 238.090,102.969 232.780,100.783 228.600 C 98.597 224.420,95.956 219.335,94.912 217.300 C 92.879 213.335,92.757 213.238,91.137 214.302 C 88.759 215.863,84.187 219.008,84.000 219.211 C 83.560 219.688,78.925 222.643,77.606 223.286 C 72.404 225.826,65.702 221.873,65.279 216.016 C 64.867 210.327,65.591 209.460,77.600 201.260 C 79.030 200.283,80.290 199.375,80.400 199.242 C 80.510 199.109,80.906 198.820,81.280 198.600 C 81.911 198.229,83.203 197.337,88.700 193.475 C 91.259 191.677,94.582 189.354,96.200 188.232 C 96.860 187.775,97.490 187.309,97.600 187.199 C 97.710 187.088,99.870 185.595,102.400 183.881 C 104.930 182.167,108.890 179.432,111.200 177.803 C 113.510 176.174,116.570 174.030,118.000 173.039 C 119.430 172.047,121.770 170.406,123.200 169.391 C 124.630 168.376,126.520 167.082,127.400 166.514 C 128.280 165.946,129.470 165.103,130.044 164.641 C 130.619 164.178,131.429 163.574,131.844 163.297 C 132.260 163.020,133.860 161.928,135.400 160.871 C 138.022 159.070,139.172 158.268,144.500 154.525 C 145.655 153.713,148.310 151.879,150.400 150.448 C 152.490 149.018,155.125 147.171,156.255 146.345 C 157.385 145.518,160.321 143.479,162.780 141.814 L 167.251 138.785 170.140 143.093 C 171.729 145.462,173.722 148.390,174.568 149.600 M302.557 180.446 C 302.516 183.229,301.620 188.000,300.800 189.800 C 300.600 190.240,299.974 191.728,299.410 193.107 C 292.951 208.890,276.077 219.416,258.417 218.680 C 255.438 218.556,252.370 218.264,251.600 218.030 C 250.830 217.797,249.435 217.418,248.500 217.188 C 245.902 216.548,246.269 215.755,250.500 212.875 C 252.535 211.490,255.460 209.457,257.000 208.358 C 260.118 206.133,261.586 205.112,267.400 201.124 C 269.600 199.615,273.290 197.045,275.600 195.414 C 277.910 193.783,280.790 191.750,282.000 190.896 C 283.210 190.042,285.730 188.289,287.600 187.001 C 289.470 185.712,292.530 183.575,294.400 182.251 C 302.858 176.261,302.617 176.314,302.557 180.446 M140.802 271.539 C 141.571 272.005,148.555 278.734,156.321 286.493 L 170.443 300.600 210.321 300.800 L 250.200 301.000 252.000 301.937 C 260.252 306.231,257.966 318.053,248.703 318.989 C 247.326 319.128,210.380 319.187,166.600 319.121 L 87.000 319.000 85.100 317.862 C 78.754 314.061,79.080 305.373,85.700 301.893 L 87.400 301.000 114.100 300.889 C 139.063 300.785,140.799 300.733,140.788 300.089 C 140.781 299.710,139.054 297.330,136.949 294.800 C 127.004 282.843,126.137 281.113,127.773 276.478 C 129.585 271.341,136.283 268.802,140.802 271.539 "
			  stroke="none" fill="#3ca0c4" fill-rule="evenodd"></path>
		<path id="path4" d="" stroke="none" fill="#00ffff" fill-rule="evenodd"></path>
	</g>
</svg>